<?xml version="1.0" standalone="no"?>
<!DOCTYPE svg PUBLIC "-//W3C//DTD SVG 20010904//EN"
 "http://www.w3.org/TR/2001/REC-SVG-20010904/DTD/svg10.dtd">
<svg version="1.0" xmlns="http://www.w3.org/2000/svg"
 width="800.000000pt" height="800.000000pt" viewBox="0 0 800.000000 800.000000"
 preserveAspectRatio="xMidYMid meet">
<metadata>
Created by potrace 1.11, written by Peter Selinger 2001-2013
</metadata>
<g transform="translate(0.000000,800.000000) scale(0.100000,-0.100000)"
fill="#000000" stroke="none">
<path d="M2700 6233 c-19 -9 -26 -9 -32 0 -6 9 -8 9 -8 0 0 -6 -9 -9 -20 -6
-11 3 -26 0 -33 -6 -8 -6 -17 -8 -21 -4 -12 12 -47 11 -37 -1 7 -8 -6 -11 -40
-10 -27 0 -49 -3 -49 -8 0 -4 -6 -8 -14 -8 -8 0 -22 -7 -31 -16 -8 -9 -22 -14
-29 -11 -8 3 -23 -3 -34 -13 -11 -10 -23 -16 -26 -13 -3 4 -6 -1 -6 -10 0 -10
-10 -17 -27 -19 -22 -2 -27 -8 -29 -33 -1 -16 3 -38 8 -47 6 -12 5 -18 -3 -18
-6 0 -9 -6 -6 -14 4 -9 -11 -32 -37 -58 -23 -24 -41 -49 -39 -55 3 -7 -5 -21
-16 -32 -10 -10 -17 -22 -14 -25 4 -3 1 -6 -5 -6 -7 0 -12 -5 -12 -11 0 -6 -9
-24 -21 -40 -11 -16 -17 -29 -13 -29 4 0 -2 -10 -14 -22 -11 -13 -24 -35 -27
-50 -4 -16 -12 -28 -17 -28 -6 0 -7 -7 -4 -16 4 -10 2 -13 -6 -8 -7 5 -9 2 -5
-9 4 -11 2 -14 -9 -10 -9 3 -14 -1 -14 -12 0 -9 -8 -29 -18 -43 -21 -31 -34
-60 -37 -83 -1 -10 -9 -24 -18 -34 -16 -15 -21 -29 -14 -40 1 -2 -7 -11 -18
-20 -11 -9 -13 -13 -5 -9 13 7 13 5 2 -9 -8 -9 -11 -21 -7 -27 8 -12 -13 -42
-25 -35 -6 4 -24 -26 -29 -50 -1 -5 -10 -18 -18 -27 -9 -10 -11 -18 -6 -18 17
0 -28 -86 -45 -87 -44 -3 -62 -8 -62 -16 0 -4 -6 -5 -12 0 -23 14 -42 12 -62
-5 -11 -9 -16 -11 -12 -4 5 8 -8 3 -27 -9 -19 -13 -33 -27 -31 -30 2 -4 -6 -5
-18 -1 -14 3 -19 2 -14 -6 4 -7 1 -12 -9 -12 -9 0 -13 -4 -10 -10 3 -5 0 -10
-7 -10 -7 0 -19 -13 -26 -28 -6 -16 -21 -38 -32 -50 -12 -12 -17 -22 -13 -22
4 0 8 -22 9 -50 1 -27 7 -57 15 -67 11 -13 11 -15 1 -9 -11 7 -12 4 -3 -11 6
-11 7 -23 3 -27 -3 -4 1 -4 11 -1 12 5 20 0 28 -19 7 -14 15 -24 18 -22 3 2
12 -2 18 -9 10 -11 10 -17 -3 -29 -14 -15 -28 -20 -38 -13 -2 1 -12 -5 -22
-14 -11 -8 -34 -16 -53 -18 -19 -2 -45 -7 -58 -12 -14 -5 -34 -9 -45 -9 -12 0
-30 -8 -41 -17 -11 -10 -17 -12 -13 -5 4 6 2 12 -3 12 -6 0 -11 -5 -11 -12 0
-9 -3 -9 -11 -1 -9 9 -18 8 -35 -4 -13 -8 -30 -13 -38 -10 -8 3 -17 -1 -20 -9
-3 -9 -10 -13 -15 -9 -5 3 -12 2 -15 -3 -2 -4 -19 -9 -37 -10 -18 -1 -39 -8
-47 -14 -7 -7 -21 -13 -30 -15 -10 -1 -26 -4 -37 -6 -11 -2 -35 -11 -52 -20
-18 -10 -33 -14 -33 -11 0 4 -8 0 -17 -9 -10 -8 -27 -17 -38 -19 -11 -1 -29
-11 -40 -21 -10 -9 -24 -16 -29 -14 -6 2 -17 -2 -24 -10 -7 -7 -22 -13 -33
-13 -10 0 -19 -4 -19 -10 0 -5 -7 -6 -17 -3 -10 4 -14 2 -10 -4 7 -11 -42 -38
-51 -28 -3 2 -12 -4 -19 -16 -11 -14 -23 -19 -42 -16 -15 3 -35 -1 -45 -9 -11
-7 -22 -11 -27 -9 -4 3 -10 1 -14 -5 -3 -5 -14 -10 -24 -10 -10 0 -30 -11 -45
-25 -15 -14 -31 -23 -34 -21 -10 6 -116 -105 -120 -124 -2 -8 -10 -20 -18 -26
-17 -14 -19 -28 -1 -18 6 4 4 -2 -6 -13 -10 -11 -19 -37 -20 -56 -2 -29 -4
-33 -16 -24 -12 10 -13 9 -7 -1 7 -11 11 -62 17 -219 1 -12 7 -24 15 -27 8 -3
14 -14 14 -25 0 -10 7 -22 16 -25 8 -3 12 -10 9 -16 -3 -5 -1 -10 4 -10 6 0
10 -3 10 -7 -1 -5 -1 -15 0 -23 1 -13 2 -13 11 0 8 12 10 11 10 -7 0 -13 5
-23 10 -23 33 0 67 -79 41 -94 -5 -4 -8 -17 -6 -31 1 -14 -1 -25 -6 -25 -4 0
-7 -8 -7 -17 1 -10 -2 -28 -6 -40 -4 -12 -2 -24 4 -28 6 -3 7 -12 3 -18 -4 -7
-8 -30 -8 -52 0 -22 -4 -46 -8 -52 -4 -7 -3 -21 2 -32 6 -10 8 -29 4 -42 -3
-13 -5 -40 -5 -59 1 -19 -4 -38 -11 -42 -9 -6 -9 -8 0 -8 8 0 12 -21 12 -67
-1 -65 -17 -111 -34 -95 -4 4 -5 -1 -2 -11 4 -11 3 -16 -3 -12 -6 3 -10 0 -10
-7 0 -10 -2 -10 -8 0 -14 22 -32 -28 -29 -83 2 -40 8 -57 28 -77 15 -15 30
-24 33 -21 3 4 6 1 6 -6 0 -7 6 -11 14 -8 8 3 17 -1 20 -9 4 -10 13 -13 26 -9
13 4 20 2 20 -6 0 -7 3 -9 7 -6 3 4 12 2 20 -4 7 -6 22 -9 33 -6 11 3 18 1 14
-4 -3 -5 4 -9 16 -9 24 0 94 -66 105 -99 3 -12 11 -19 16 -16 5 4 9 -1 9 -10
0 -9 4 -14 9 -11 14 9 21 -20 8 -34 -7 -7 -7 -10 -2 -7 6 3 17 2 25 -4 8 -5
11 -9 5 -9 -12 0 -12 -51 0 -70 5 -8 4 -15 -2 -17 -5 -2 2 -28 17 -60 16 -34
26 -69 24 -90 -2 -25 2 -33 13 -33 9 0 13 -3 10 -6 -4 -4 3 -20 15 -37 12 -17
17 -27 10 -23 -7 4 -12 2 -12 -3 0 -6 4 -11 8 -11 9 0 48 -62 43 -70 -1 -2 6
-7 16 -11 10 -4 14 -8 10 -8 -5 -1 -1 -8 7 -17 9 -8 16 -24 16 -34 0 -15 31
-34 53 -31 4 1 7 -4 7 -9 0 -15 46 -60 61 -60 6 0 19 -8 28 -18 23 -25 56 -49
47 -35 -5 9 -2 11 8 7 9 -3 16 -13 16 -21 0 -8 4 -12 9 -8 5 3 12 1 16 -5 4
-6 11 -8 16 -5 5 4 9 1 9 -5 0 -7 7 -10 15 -6 10 3 15 -1 16 -12 0 -11 2 -12
6 -4 4 10 8 10 21 0 13 -11 14 -11 7 1 -5 10 -4 12 3 7 7 -4 12 -15 12 -24 0
-11 3 -13 8 -6 8 13 80 13 101 0 10 -7 12 -5 6 5 -6 11 -5 12 6 1 15 -14 33
-16 24 -3 -6 10 27 7 45 -4 6 -3 10 -2 10 4 0 11 19 9 39 -3 9 -6 12 -5 7 2
-4 6 1 10 11 10 10 -1 36 2 58 7 22 5 49 9 60 10 11 1 35 9 52 18 18 10 36 17
39 16 4 0 11 6 16 14 4 8 16 14 25 13 9 -2 26 7 37 19 12 12 28 20 36 17 8 -3
12 -1 8 3 -4 4 19 32 50 64 31 31 56 59 55 63 -1 3 13 23 32 44 19 21 35 40
36 43 4 32 11 46 30 64 12 11 18 22 12 24 -12 4 22 83 35 83 5 0 14 -6 21 -13
11 -9 13 -9 7 0 -4 8 -1 13 8 13 9 0 16 -6 16 -12 0 -9 4 -8 10 2 5 8 10 11
10 5 0 -5 5 -3 10 5 6 9 10 10 10 3 0 -8 19 -10 60 -8 33 2 60 -1 60 -5 0 -5
22 -9 49 -8 27 1 48 5 46 8 -2 4 17 4 43 0 56 -7 136 -5 150 4 6 3 13 3 16 -2
2 -4 57 -7 120 -7 64 0 117 -4 119 -8 1 -5 14 -4 27 1 40 14 237 7 257 -9 14
-12 16 -12 8 0 -6 11 1 13 43 9 28 -3 49 -1 46 4 -3 4 0 8 5 8 6 0 11 -6 11
-12 0 -9 4 -8 10 2 7 11 10 11 10 2 0 -7 4 -10 10 -7 20 12 112 7 122 -7 8
-10 9 -9 4 4 -7 23 9 32 24 14 13 -17 50 -17 50 -1 0 5 4 4 9 -4 6 -9 11 -10
15 -2 4 7 15 7 30 1 13 -5 27 -6 31 -2 3 3 10 0 15 -8 8 -12 10 -12 10 -1 0
11 3 11 15 1 13 -11 14 -10 10 1 -4 10 3 14 25 13 17 0 33 -3 36 -6 3 -3 20
-2 39 2 29 6 38 4 63 -19 16 -14 32 -34 35 -44 4 -10 11 -16 16 -13 5 3 30
-11 57 -31 27 -20 43 -30 37 -23 -7 8 -13 18 -13 23 0 6 11 -2 25 -17 14 -15
25 -23 25 -17 0 5 9 7 20 4 11 -3 20 -9 20 -14 0 -5 21 -9 46 -9 27 0 43 -4
39 -10 -3 -5 -1 -10 5 -10 6 0 16 -13 21 -30 6 -16 16 -30 22 -30 6 0 8 -3 4
-6 -3 -4 1 -13 9 -21 8 -8 12 -19 9 -24 -4 -5 1 -9 10 -9 9 0 14 -4 10 -9 -3
-5 4 -12 15 -16 11 -3 20 -13 20 -21 0 -8 5 -14 11 -14 5 0 8 -4 5 -8 -5 -8
43 -50 51 -44 2 2 17 -11 33 -28 16 -17 34 -29 40 -25 5 3 10 1 10 -5 0 -6 5
-8 11 -4 6 3 15 0 20 -7 4 -8 12 -14 16 -15 4 0 24 -8 42 -16 19 -9 41 -14 48
-11 7 3 13 1 13 -4 0 -5 21 -10 48 -11 26 -1 74 -3 107 -4 33 -2 79 2 102 9
32 9 43 9 47 0 3 -9 5 -9 5 0 1 7 7 10 14 7 8 -3 19 2 26 10 7 8 19 12 27 9 8
-3 14 -1 14 4 0 5 9 9 21 10 12 1 26 9 32 17 7 9 21 17 32 19 11 1 22 7 25 12
6 14 80 75 91 75 5 0 9 6 9 13 0 7 14 26 30 42 17 16 30 34 30 40 0 7 9 20 20
30 11 10 20 29 20 42 0 14 6 23 16 23 11 0 14 5 10 16 -3 9 2 28 13 42 10 15
19 30 20 35 1 4 2 9 2 12 1 3 2 13 4 23 1 9 4 24 7 32 17 43 28 85 28 106 0
32 14 37 56 19 24 -10 41 -12 48 -6 7 6 18 6 26 1 11 -7 40 1 56 14 0 1 8 -5
17 -12 13 -11 17 -11 24 0 4 7 29 14 55 14 30 1 45 -2 41 -9 -3 -5 0 -7 8 -5
8 3 13 9 12 14 -1 5 38 9 85 9 48 -1 101 4 117 11 17 6 39 9 50 7 32 -7 169 2
185 12 5 3 11 1 15 -5 4 -6 13 -7 23 -1 9 5 42 9 72 10 30 0 84 4 120 7 36 3
86 7 113 8 26 0 47 4 47 8 0 4 19 5 43 4 23 -2 47 1 54 6 7 5 18 6 25 2 7 -5
22 -8 33 -9 11 0 19 -5 18 -12 -2 -6 9 -21 22 -32 16 -12 21 -21 13 -23 -8 -3
-3 -14 15 -32 15 -15 27 -31 27 -37 0 -6 4 -8 8 -5 5 3 8 -5 8 -17 -1 -12 4
-22 10 -22 6 0 24 -14 40 -31 16 -17 39 -37 52 -43 12 -7 20 -16 17 -22 -4 -5
0 -10 7 -11 7 0 18 -2 23 -2 6 -1 21 -9 35 -18 14 -9 34 -18 45 -20 11 -2 22
-6 25 -10 11 -14 164 -33 156 -19 -6 9 53 -1 73 -13 6 -4 11 -3 11 1 0 5 10 9
23 9 37 0 107 15 113 25 3 5 16 9 28 9 13 0 35 9 50 21 14 11 31 17 37 13 7
-4 9 -3 6 3 -3 5 3 17 14 26 13 11 19 13 19 4 0 -6 18 6 39 28 21 22 37 43 34
47 -2 4 3 5 12 2 11 -5 14 -2 8 12 -3 10 -2 15 3 12 5 -4 18 0 29 8 10 8 14
14 8 14 -7 0 -3 16 8 40 11 22 22 40 25 40 3 0 2 -5 -2 -12 -4 -7 -3 -8 4 -4
7 4 12 18 12 31 0 13 5 27 10 30 6 4 8 10 5 15 -3 5 1 12 8 17 8 4 17 30 19
56 4 30 13 54 24 63 11 9 13 12 5 8 -10 -5 -12 -3 -5 7 5 8 9 25 10 39 0 14 4
32 9 39 6 10 4 12 -6 6 -11 -7 -11 -6 1 9 15 19 23 49 11 41 -4 -2 -8 3 -8 11
0 9 6 13 14 10 9 -4 11 -1 7 6 -12 18 -11 62 0 70 8 5 7 8 -1 8 -10 0 -10 6
-1 25 6 14 18 25 25 25 8 0 12 4 9 9 -3 5 1 12 10 15 8 3 12 10 9 16 -3 5 -1
10 6 10 7 0 9 3 6 6 -3 4 -2 14 3 24 9 17 15 44 26 110 3 19 7 46 9 59 2 13 1
29 -3 35 -11 18 -13 46 -3 46 6 0 8 -10 6 -21 -3 -12 -1 -18 3 -15 10 11 9 50
-2 58 -6 4 2 12 17 19 31 14 44 44 27 64 -6 8 -7 16 -2 19 17 10 15 116 -2
157 -4 8 -8 36 -9 61 -1 25 -6 44 -11 40 -5 -3 -7 5 -4 16 4 13 1 22 -5 22 -7
0 -5 5 3 10 9 6 10 10 3 10 -7 0 -10 12 -8 30 2 16 0 32 -5 35 -5 3 -7 15 -5
26 6 29 -15 56 -42 54 -12 -1 -20 1 -18 5 2 3 0 12 -6 20 -7 13 -9 13 -9 0 -1
-18 -20 24 -26 60 -3 13 -9 29 -14 35 -5 6 -11 26 -12 44 -1 18 -8 37 -14 42
-7 5 -10 18 -7 28 3 10 0 22 -6 25 -6 4 -11 16 -11 27 0 10 -5 19 -11 19 -6 0
-9 7 -5 15 3 8 1 15 -5 15 -6 0 -8 4 -5 9 3 4 -5 36 -19 70 -13 34 -23 63 -22
65 1 3 -2 8 -7 13 -5 5 -6 2 -1 -6 5 -9 4 -12 -3 -7 -6 4 -8 14 -5 23 5 12 3
14 -8 9 -8 -4 -6 -1 3 7 16 13 16 15 -8 26 -19 8 -25 17 -21 32 4 14 -2 27
-19 42 -13 11 -24 29 -24 38 0 10 -8 24 -17 31 -10 7 -19 20 -21 28 -2 8 -8
17 -13 18 -5 2 -9 9 -9 15 0 11 -77 87 -88 87 -4 0 -8 12 -9 28 -7 80 -9 98
-17 110 -4 7 -5 16 -2 19 3 3 1 14 -5 25 -6 11 -15 50 -20 87 -14 103 -19 119
-37 124 -14 4 -13 5 3 6 17 1 18 3 5 11 -10 7 -11 10 -2 10 10 0 9 7 -3 30 -8
16 -15 41 -15 55 0 18 -4 24 -12 19 -8 -5 -8 -1 1 10 12 14 12 19 2 25 -7 5
-12 12 -12 17 2 19 -12 74 -18 74 -4 0 -8 12 -9 27 -1 15 -7 30 -13 34 -6 3
-10 9 -10 13 1 3 0 8 0 11 -2 9 -6 44 -8 66 0 11 -5 17 -11 14 -6 -3 -7 1 -4
9 3 9 2 16 -3 16 -5 0 -10 6 -11 13 -3 37 -22 87 -33 87 -5 0 -9 5 -9 11 0 5
5 7 10 4 6 -4 2 9 -7 28 -12 23 -21 31 -26 23 -6 -7 -7 -4 -3 7 5 17 -12 67
-23 67 -3 0 -7 12 -8 26 0 15 -7 30 -15 35 -7 5 -13 12 -13 16 -2 19 -17 54
-22 49 -7 -7 -33 40 -33 59 0 7 -7 15 -15 19 -8 3 -15 12 -15 21 0 8 -6 15
-14 15 -7 0 -21 16 -30 35 -10 21 -22 33 -28 29 -7 -4 -8 -2 -4 4 4 7 3 12 -3
12 -6 0 -8 7 -5 15 4 10 0 15 -12 15 -9 0 -14 3 -11 7 4 3 -1 11 -10 18 -9 7
-16 25 -17 41 -1 20 -10 34 -33 50 -18 12 -30 23 -28 26 2 2 -5 5 -17 5 -12 1
-24 6 -27 11 -10 15 -91 63 -91 54 0 -15 -54 0 -67 18 -12 16 -46 20 -59 7 -4
-4 -13 -2 -20 3 -15 13 -143 20 -150 8 -3 -5 -10 -6 -15 -2 -6 3 -27 7 -49 9
-21 2 -43 6 -49 10 -6 3 -16 3 -23 -1 -16 -10 -78 -12 -78 -2 0 4 -10 4 -23
-1 -14 -6 -30 -5 -41 1 -15 8 -17 8 -10 -3 6 -12 5 -12 -8 -1 -9 7 -19 9 -22
4 -3 -5 -34 -8 -68 -7 -35 1 -71 -2 -80 -7 -9 -4 -19 -4 -22 1 -7 11 -56 11
-78 0 -12 -7 -18 -6 -18 1 0 6 -4 9 -9 5 -5 -3 -13 -1 -16 5 -5 8 -12 7 -23
-2 -13 -11 -14 -11 -8 0 7 11 4 12 -12 3 -24 -13 -82 -11 -82 2 0 5 -8 6 -17
2 -26 -12 -106 -13 -120 -2 -9 6 -13 5 -13 -2 0 -8 -6 -9 -18 -2 -11 6 -24 6
-36 -1 -14 -8 -17 -7 -12 1 4 6 3 11 -3 11 -5 0 -14 -7 -19 -16 -8 -14 -11
-14 -24 -1 -10 10 -20 12 -31 6 -9 -6 -18 -5 -22 0 -4 7 -15 6 -31 -1 -20 -9
-27 -9 -33 1 -6 10 -10 10 -16 2 -4 -7 -20 -10 -41 -7 -22 4 -34 2 -34 -5 0
-8 -4 -8 -13 0 -8 6 -17 8 -20 4 -4 -3 -7 -1 -7 5 0 7 -10 8 -30 2 -23 -7 -65
-7 -65 0 0 1 -10 3 -22 6 -13 2 -23 0 -23 -4 0 -4 -9 -8 -20 -8 -11 0 -20 3
-20 7 0 6 -23 5 -40 -1 -3 -1 -9 -2 -14 -1 -4 1 -14 -4 -22 -10 -8 -6 -14 -7
-14 -2 0 5 -47 8 -105 8 -58 -1 -105 2 -105 5 0 4 -7 7 -15 7 -8 0 -15 -3 -15
-7 0 -9 -153 -6 -167 3 -7 5 -13 4 -13 -1 0 -10 -75 -10 -85 0 -4 4 -17 2 -28
-4 -14 -7 -22 -7 -24 -1 -5 13 -53 4 -53 -9 0 -7 -5 -6 -13 1 -8 6 -17 8 -20
4 -4 -3 -7 -2 -7 4 0 5 -7 10 -15 10 -8 0 -15 -3 -15 -7 0 -11 -154 -6 -162 5
-5 7 -8 7 -8 0 0 -11 -204 -14 -215 -3 -4 4 -24 0 -46 -7 -21 -8 -41 -11 -43
-6 -3 4 -40 6 -83 5 -43 -1 -83 2 -90 8 -7 6 -13 6 -13 1 0 -11 -80 -11 -97 0
-7 5 -13 4 -13 -2 0 -10 -46 -9 -57 2 -3 4 -13 1 -21 -6 -13 -10 -14 -9 -7 2
6 11 5 12 -6 5 -20 -12 -61 -13 -81 -2 -11 5 -18 5 -18 0 0 -12 -158 -14 -165
-2 -4 7 -13 6 -25 0 -12 -6 -21 -6 -25 -1 -6 10 -45 11 -45 1 0 -3 -18 -6 -40
-5 -22 0 -40 2 -40 5 0 10 -56 5 -80 -7z"/>
<path d="M279 3158 c-5 -18 -6 -38 -1 -34 7 8 12 36 6 36 -2 0 -4 -1 -5 -2z"/>
</g>
</svg>
